<svg width="32" height="32" viewBox="0 0 32 32" fill="none" xmlns="http://www.w3.org/2000/svg">
<g id="User Interface / Exclamation Mark">
<path id="Vector" d="M15.9998 14.6667C15.6462 14.6667 15.3071 14.8071 15.057 15.0572C14.807 15.3072 14.6665 15.6464 14.6665 16V21.3333C14.6665 21.6869 14.807 22.0261 15.057 22.2761C15.3071 22.5262 15.6462 22.6667 15.9998 22.6667C16.3535 22.6667 16.6926 22.5262 16.9427 22.2761C17.1927 22.0261 17.3332 21.6869 17.3332 21.3333V16C17.3332 15.6464 17.1927 15.3072 16.9427 15.0572C16.6926 14.8071 16.3535 14.6667 15.9998 14.6667ZM16.5065 9.43999C16.1819 9.30663 15.8178 9.30663 15.4932 9.43999C15.3295 9.50345 15.18 9.5986 15.0532 9.71999C14.9354 9.84959 14.8407 9.99841 14.7732 10.16C14.6985 10.3182 14.662 10.4918 14.6665 10.6667C14.6655 10.8421 14.6991 11.0161 14.7655 11.1785C14.8318 11.341 14.9296 11.4887 15.0532 11.6133C15.1828 11.7311 15.3316 11.8258 15.4932 11.8933C15.6952 11.9763 15.9145 12.0084 16.1318 11.9868C16.3491 11.9652 16.5578 11.8906 16.7395 11.7694C16.9212 11.6483 17.0703 11.4844 17.1739 11.2921C17.2774 11.0998 17.3321 10.885 17.3332 10.6667C17.3283 10.3136 17.1902 9.9755 16.9465 9.71999C16.8197 9.5986 16.6702 9.50345 16.5065 9.43999ZM15.9998 2.66666C13.3628 2.66666 10.7849 3.44864 8.59224 4.91373C6.39958 6.37881 4.69062 8.4612 3.68145 10.8975C2.67228 13.3339 2.40824 16.0148 2.92271 18.6012C3.43718 21.1876 4.70705 23.5634 6.57175 25.4281C8.43645 27.2928 10.8122 28.5627 13.3986 29.0771C15.9851 29.5916 18.6659 29.3276 21.1023 28.3184C23.5386 27.3092 25.621 25.6002 27.0861 23.4076C28.5512 21.2149 29.3332 18.6371 29.3332 16C29.3332 14.249 28.9883 12.5152 28.3182 10.8975C27.6482 9.27987 26.666 7.81001 25.4279 6.5719C24.1898 5.33379 22.72 4.35166 21.1023 3.6816C19.4846 3.01153 17.7508 2.66666 15.9998 2.66666ZM15.9998 26.6667C13.8902 26.6667 11.8279 26.0411 10.0738 24.869C8.31964 23.6969 6.95246 22.031 6.14513 20.0819C5.33779 18.1329 5.12656 15.9882 5.53813 13.919C5.94971 11.8499 6.96561 9.94928 8.45737 8.45752C9.94913 6.96576 11.8497 5.94986 13.9189 5.53828C15.988 5.1267 18.1327 5.33794 20.0818 6.14528C22.0309 6.95261 23.6968 8.31978 24.8689 10.0739C26.0409 11.828 26.6665 13.8903 26.6665 16C26.6665 18.829 25.5427 21.5421 23.5423 23.5425C21.5419 25.5429 18.8288 26.6667 15.9998 26.6667Z" fill="#E90335"/>
</g>
</svg>
